PathFileType	4	(X/Y/Z)	C:\Users\Basilio\Documents\Thesis Gigler\squatting_fais\c3dfiles\040\SLS_pre_front1\markers_experimental.trc
DataRate	CameraRate	NumFrames	NumMarkers	Units	OrigDataRate	OrigDataStartFrame	OrigNumFrames
200.000000	200.000000	4	62	mm	200.000000	141	1129
Frame#	Time	FHD			LBHD			RBHD			C7			T10			CLAV			LSHO			LUUPA			LMUPA			LDUPA			LLEP			LMEP			LRAD			LUL			LRFIN			RSHO			RUPA1			RMUPA			RDUPA			RLEP			RMEP			RRAD			RUL			RUFIN			LASI			RASI			USACR			LSACR			RSACR			LTHI1			LTHI2			LTHI3			LTHI4			LLFC			LMFC			LTIB1			LTIB2			LTIB3			LTIB4			LLMAL			LMMAL			LHEE			LMT1			LMT2			LMT5			RTHI			RTHI2			RTHI3			RTHI4			RLFC			RMFC			RTIB1			RTIB2			RTIB3			RTIB4			RLMAL			RMMAL			RHEE			RMT1			RMT2			RMT5			*61			
		X1	Y1	Z1	X2	Y2	Z2	X3	Y3	Z3	X4	Y4	Z4	X5	Y5	Z5	X6	Y6	Z6	X7	Y7	Z7	X8	Y8	Z8	X9	Y9	Z9	X10	Y10	Z10	X11	Y11	Z11	X12	Y12	Z12	X13	Y13	Z13	X14	Y14	Z14	X15	Y15	Z15	X16	Y16	Z16	X17	Y17	Z17	X18	Y18	Z18	X19	Y19	Z19	X20	Y20	Z20	X21	Y21	Z21	X22	Y22	Z22	X23	Y23	Z23	X24	Y24	Z24	X25	Y25	Z25	X26	Y26	Z26	X27	Y27	Z27	X28	Y28	Z28	X29	Y29	Z29	X30	Y30	Z30	X31	Y31	Z31	X32	Y32	Z32	X33	Y33	Z33	X34	Y34	Z34	X35	Y35	Z35	X36	Y36	Z36	X37	Y37	Z37	X38	Y38	Z38	X39	Y39	Z39	X40	Y40	Z40	X41	Y41	Z41	X42	Y42	Z42	X43	Y43	Z43	X44	Y44	Z44	X45	Y45	Z45	X46	Y46	Z46	X47	Y47	Z47	X48	Y48	Z48	X49	Y49	Z49	X50	Y50	Z50	X51	Y51	Z51	X52	Y52	Z52	X53	Y53	Z53	X54	Y54	Z54	X55	Y55	Z55	X56	Y56	Z56	X57	Y57	Z57	X58	Y58	Z58	X59	Y59	Z59	X60	Y60	Z60	X61	Y61	Z61	X62	Y62	Z62	

142	0.705	-186.0426635742188	1766.77685546875	-1120.094360351563	-310.3111572265626	1721.656616210938	-1167.40625	-369.7526855468751	1683.595581054688	-1038.472290039063	-386.7491760253907	1558.98779296875	-1084.9326171875	-412.8981018066407	1239.414794921875	-1068.12841796875	-260.8605957031251	1486.112182617188	-1090.39013671875	-322.6310729980469	1523.796875	-1255.752319335938	-270.5645751953126	1335.666015625	-1343.38916015625	-224.6226043701172	1328.22607421875	-1324.874267578125	-238.4399108886719	1275.1337890625	-1353.408203125	-218.9241485595704	1213.545532226563	-1354.389770507813	-247.1530303955079	1187.4404296875	-1299.065673828125	28.22775268554688	1092.013427734375	-1261.232055664063	13.14521884918213	1062.264404296875	-1329.4580078125	109.5660858154297	1053.02197265625	-1266.650268554688	-293.0224914550782	1496.555541992188	-923.9287109375002	-257.2528381347657	1297.517578125	-843.0603637695315	-214.4170532226563	1289.022216796875	-863.5772705078127	-227.6208190917969	1234.904418945313	-840.3598632812502	-196.4527740478516	1178.923706054688	-845.0100708007815	-237.8538970947266	1153.486206054688	-904.2803344726565	31.28594207763673	1032.263061523438	-953.9006347656252	2.807744264602662	990.396179199219	-896.694519042969	106.826042175293	981.5649414062502	-942.2176513671877	-232.5739440917969	1070.022338867188	-1185.71044921875	-221.1040649414063	1078.025024414063	-957.0233154296877	-413.1715393066407	1099.281005859375	-1053.594360351563	-419.6893920898439	1068.766479492188	-1080.303344726563	-416.6985778808595	1068.632934570313	-1024.106811523438	-326.7367248535157	803.8201293945315	-1218.337158203125	-279.3665161132813	733.3523559570314	-1220.997680664063	-235.0414581298829	742.6584472656251	-1228.991455078125	-293.9074096679688	678.6650390625001	-1203.433959960938	-261.0009765625001	547.9882202148439	-1186.99658203125	-252.2068328857422	539.6634521484376	-1055.570190429688	-243.2807006835938	323.3828430175782	-1125.684204101563	-319.7283935546876	292.9830932617188	-1156.927612304688	-278.2829895019532	279.8195495605469	-1146.229248046875	-277.0493164062501	204.5321197509766	-1103.382934570313	-354.7209472656251	126.15478515625	-1103.745361328125	-316.5020446777344	140.8268737792969	-1025.536010742188	-413.8068847656251	97.49163055419925	-1047.48291015625	-200.1250305175782	55.65116500854494	-1049.604614257813	-205.1779785156251	51.46469497680665	-1095.854125976563	-262.2008361816407	38.12206268310548	-1137.281860351563	-197.2145233154297	817.473815917969	-878.250183105469	-146.6746063232422	775.5681152343752	-886.6370849609377	-117.8058395385742	787.299987792969	-898.3715820312502	-150.746337890625	692.5305786132814	-898.032653808594	-98.18846130371097	568.5098876953126	-911.7120361328127	-104.7382278442383	561.0880737304689	-1046.676879882813	19.28432846069336	417.4226379394532	-944.736267089844	-13.1338005065918	318.0052185058594	-916.8692626953127	28.78974342346192	332.0996398925782	-930.561462402344	60.5472869873047	297.4552917480469	-966.1801757812502	64.08489990234376	169.0998077392578	-944.6596679687502	66.75796508789064	192.533187866211	-1030.621459960938	21.14759254455567	100.2593994140625	-996.1030273437502	223.6504821777344	189.623291015625	-1027.479614257813	221.702865600586	189.1049957275391	-988.1210937500002	203.1300964355469	146.0966339111328	-935.0117797851565	nan	nan	nan	
143	0.71	-186.0917663574219	1766.717163085938	-1120.195678710938	-310.4032592773438	1721.6728515625	-1167.528686523438	-369.8046569824219	1683.49169921875	-1038.58984375	-386.6744384765626	1558.911254882813	-1085.06494140625	-412.8625488281251	1239.276733398438	-1068.339477539063	-260.8652343750001	1485.927856445313	-1090.618774414063	-322.6851501464844	1523.79052734375	-1255.999755859375	-271.0894775390626	1335.465209960938	-1343.70556640625	-225.0266265869141	1327.779907226563	-1325.106567382813	-239.0492095947266	1274.836547851563	-1353.62890625	-219.8819122314454	1213.286010742188	-1354.688232421875	-247.7346343994141	1186.983276367188	-1299.489990234375	26.59354972839356	1090.145751953125	-1261.539428710938	11.49179077148438	1060.835571289063	-1329.884887695313	107.8165740966797	1050.970947265625	-1266.840942382813	-293.1146240234376	1496.547973632813	-924.188659667969	-257.3985290527344	1297.435180664063	-843.5252685546877	-214.6399536132813	1288.900634765625	-863.974060058594	-227.9037017822266	1234.782104492188	-840.7431640625002	-196.6509857177735	1178.96923828125	-845.705017089844	-237.9955291748047	1153.594482421875	-904.6884765625002	31.20381355285645	1031.894165039063	-954.0526123046877	2.327488899230957	989.8731079101565	-896.991882324219	106.489486694336	981.1595458984377	-942.1675415039065	-232.5634918212891	1070.626831054688	-1185.596313476563	-221.1255340576172	1078.013061523438	-957.0050048828127	-413.217987060547	1099.31298828125	-1053.790893554688	-419.4959716796876	1068.669311523438	-1080.442260742188	-416.6632385253907	1068.58984375	-1024.199340820313	-326.5756530761719	803.875671386719	-1218.184692382813	-279.2656250000001	733.3245849609376	-1220.861694335938	-234.9144744873047	742.6571655273439	-1228.829956054688	-293.8041687011719	678.6924438476564	-1203.238647460938	-261.0443725585938	548.0271606445314	-1186.863159179688	-252.4263763427735	539.7485961914064	-1055.37939453125	-243.1838073730469	323.1611022949219	-1125.393310546875	-319.5596923828126	292.9265136718751	-1156.82666015625	-278.2997436523438	279.8599243164063	-1146.088012695313	-277.2014160156251	204.5094909667969	-1103.143676757813	-354.4516906738282	126.1228561401367	-1103.537963867188	-316.5755310058594	140.7750396728516	-1025.44677734375	-413.842742919922	97.48643493652347	-1047.447631835938	-200.1017303466797	55.6387405395508	-1049.52880859375	-205.1131134033204	51.47175979614259	-1095.806762695313	-262.1783142089844	38.15501022338868	-1137.27392578125	-197.2168884277344	817.5818481445315	-878.2805786132815	-146.6970520019532	775.8535156250002	-886.767517089844	-117.8871231079102	787.4121704101565	-898.5103759765627	-150.7229461669922	692.5795898437501	-898.0673828125002	-98.31201171875003	568.4949340820314	-911.7285766601565	-105.2373275756836	560.9841918945314	-1046.643188476563	19.14050102233887	417.426971435547	-944.917175292969	-13.28133392333985	318.0276794433594	-916.8065185546877	28.63889884948731	332.1946105957032	-930.6252441406252	60.29663848876955	297.3135986328126	-966.2913818359377	63.37538528442384	169.3180847167969	-944.5405273437502	65.96276092529298	192.8870849609376	-1030.531005859375	20.82904434204102	100.1446151733399	-995.881530761719	223.1773529052735	189.4042053222657	-1028.096557617188	221.4035339355469	188.9615936279297	-988.6414794921877	203.1336364746094	146.0220336914063	-935.3242187500002	nan	nan	nan	
144	0.715	-186.1495056152344	1766.749633789063	-1120.244262695313	-310.5366821289063	1721.730590820313	-1167.59765625	-369.8719177246094	1683.400146484375	-1038.687622070313	-386.7371215820314	1558.932861328125	-1085.24462890625	-412.9468688964845	1239.185668945313	-1068.502197265625	-260.8730163574219	1485.728515625	-1090.8134765625	-322.6562194824219	1523.759765625	-1256.24755859375	-271.5461120605469	1335.224243164063	-1344.034057617188	-225.5451202392579	1327.3115234375	-1325.21240234375	-239.579818725586	1274.455932617188	-1353.874389648438	-220.6737060546876	1212.88134765625	-1354.96923828125	-249.0323028564454	1187.086791992188	-1299.913818359375	24.96014213562012	1088.513061523438	-1261.800415039063	9.839274406433107	1059.207641601563	-1330.35791015625	105.8390884399414	1049.16455078125	-1267.116821289063	-293.2688903808594	1496.498046875	-924.3760986328127	-257.7070922851563	1297.117309570313	-844.021911621094	-214.9127807617188	1288.557006835938	-864.3138427734377	-228.0520629882813	1234.684692382813	-841.2672119140627	-196.6257629394532	1178.57763671875	-846.4165649414065	-238.2589416503907	1153.583618164063	-905.059997558594	31.27500915527344	1031.192749023438	-954.2097778320315	1.950373888015748	989.6121826171877	-897.087585449219	106.2875366210938	980.624450683594	-942.147399902344	-232.3828582763672	1070.621826171875	-1185.469848632813	-221.2225646972657	1078.054809570313	-956.978942871094	-413.243377685547	1099.28466796875	-1053.933715820313	-419.4908752441407	1068.646606445313	-1080.554443359375	-416.6049194335939	1068.577880859375	-1024.299194335938	-326.3431701660157	803.8626708984377	-1218.081665039063	-279.1127319335938	733.2760009765626	-1220.704711914063	-234.8005065917969	742.6466674804689	-1228.71923828125	-293.7349243164063	678.6682739257814	-1203.086181640625	-261.1477355957032	548.3533325195314	-1186.694091796875	-252.6141967773438	539.7974243164064	-1055.2451171875	-243.0827178955079	323.2283020019532	-1125.297119140625	-319.5291137695313	292.9100952148438	-1156.766967773438	-278.2737121582032	279.8628234863282	-1145.90673828125	-277.2453613281251	204.5480499267579	-1103.022827148438	-354.3856811523438	126.0899734497071	-1103.419189453125	-316.5571899414063	140.7408752441407	-1025.3701171875	-413.7733764648439	97.49089050292972	-1047.427612304688	-200.0983123779297	55.51008605957033	-1049.403076171875	-205.1229553222657	51.51270294189455	-1095.805541992188	-262.2388305664063	38.22336959838868	-1137.266723632813	-197.3559112548829	817.6782226562502	-878.2571411132815	-146.7658996582032	775.8773193359377	-886.6921997070315	-117.823112487793	787.2916259765627	-898.6634521484377	-150.8292694091797	692.6607666015626	-898.113464355469	-98.36711120605472	568.5243530273439	-911.6925048828127	-105.6092681884766	560.8370971679689	-1046.662963867188	18.86912918090821	417.2038879394532	-945.1131591796877	-13.40838241577149	318.0240478515626	-916.750915527344	28.57953453063966	332.2054443359376	-930.5942993164065	60.10092163085939	297.3150024414063	-966.4403076171877	63.33445358276369	169.2168121337891	-944.5254516601565	65.55099487304689	192.5371246337891	-1030.5888671875	20.64343452453614	100.6145782470703	-995.4743652343752	222.7992706298829	189.2466278076172	-1028.621704101563	221.1383361816407	188.8717651367188	-989.0198364257815	202.9890441894532	145.9911041259766	-935.7597656250002	nan	nan	nan	
145	0.72	-186.2201080322266	1766.82666015625	-1120.266235351563	-310.7164001464844	1721.798706054688	-1167.670776367188	-369.8123779296876	1683.157470703125	-1038.866088867188	-386.8320922851564	1558.875122070313	-1085.500854492188	-412.8759155273439	1239.143920898438	-1068.6826171875	-260.8598937988282	1485.609497070313	-1090.992553710938	-322.6094055175782	1523.758422851563	-1256.526733398438	-271.7993164062501	1334.982299804688	-1344.164916992188	-225.8068237304688	1327.021118164063	-1325.615966796875	-240.2031250000001	1274.135375976563	-1354.141235351563	-221.4950866699219	1212.510498046875	-1355.248779296875	-249.7361450195313	1186.654541015625	-1300.319580078125	23.06750869750977	1086.577758789063	-1262.019409179688	8.013219833374025	1057.766723632813	-1330.72705078125	104.2189636230469	1046.882080078125	-1267.307861328125	-293.2898254394532	1496.538330078125	-924.5673828125002	-257.9339294433594	1296.9033203125	-844.5058593750002	-215.1279602050782	1288.5634765625	-864.6866455078127	-228.2681579589844	1234.449462890625	-841.8189086914065	-196.7125244140626	1178.628295898438	-846.690124511719	-238.4558105468751	1153.621459960938	-905.6253662109377	31.27359580993653	1030.344848632813	-954.2432250976565	0.7827516198158266	988.2547607421877	-897.7078857421877	105.7008666992188	980.0114746093752	-941.921569824219	-232.3181152343751	1070.635131835938	-1185.4443359375	-221.3943176269532	1077.956909179688	-956.8523559570315	-413.2410888671876	1099.306640625	-1054.031860351563	-419.4264526367189	1068.602905273438	-1080.723022460938	-416.661102294922	1068.535400390625	-1024.447143554688	-326.2489013671876	803.9346313476565	-1217.996704101563	-279.0217895507813	733.2990722656251	-1220.61865234375	-234.5497589111329	742.5602416992189	-1228.53076171875	-293.6014099121094	678.6427001953126	-1202.985473632813	-260.8101806640626	547.9372558593751	-1186.5810546875	-252.7108612060547	539.7528076171876	-1055.117919921875	-242.9806823730469	323.0008850097657	-1125.031005859375	-319.4383850097657	292.8820800781251	-1156.697265625	-278.2030944824219	279.8528137207032	-1145.771118164063	-277.2145080566407	204.5440063476563	-1102.890502929688	-354.5224609375001	126.1049575805664	-1103.40478515625	-316.5629882812501	140.7194213867188	-1025.341064453125	-413.826385498047	97.5143966674805	-1047.360717773438	-200.0447235107422	55.51896286010744	-1049.440185546875	-205.1546173095704	51.54850387573244	-1095.736938476563	-262.2276000976563	38.26168060302735	-1137.24072265625	-197.5043945312501	817.7691650390627	-878.2070312500002	-146.8445892333985	775.8755493164065	-886.7749023437502	-117.84033203125	787.4478759765627	-898.797058105469	-150.9825134277344	692.7227783203126	-898.1187133789065	-98.46058654785159	568.4879150390626	-911.7058715820315	-106.3117980957032	560.6906127929689	-1046.53125	18.67625427246094	417.0177307128907	-945.1727294921877	-13.66584491729737	318.0271606445313	-916.6218261718752	27.58691596984864	331.7364501953126	-931.3864746093752	59.93037414550783	297.1514587402344	-966.4751586914065	63.09471511840822	168.9402160644532	-944.4877929687502	65.10666656494142	192.4077453613282	-1030.597290039063	20.31369781494141	100.5139312744141	-995.2559204101565	222.4199371337891	189.1513671875	-1029.000244140625	220.8302917480469	188.7126617431641	-989.453063964844	202.8373565673829	145.9058380126953	-936.1157226562502	nan	nan	nan	
